<?xml version="1.0" encoding="utf-8"?>
<!-- Generator: Adobe Illustrator 22.0.1, SVG Export Plug-In . SVG Version: 6.00 Build 0)  -->
<svg version="1.1" id="Camada_1" xmlns="http://www.w3.org/2000/svg" xmlns:xlink="http://www.w3.org/1999/xlink" x="0px" y="0px"
	 viewBox="0 0 32 12.3" style="enable-background:new 0 0 32 12.3;" xml:space="preserve">
<style type="text/css">
	.st0{fill:#000111;}
</style>
<path class="st0" d="M7.4,12.2c-0.2-0.3-0.3-0.7-0.3-1.1c-0.8,0.9-1.9,1.3-3,1.3c-1.1,0-2.1-0.3-2.9-1C0.4,10.7,0,9.8,0,8.8
	c-0.1-1.1,0.5-2.2,1.4-2.9c1.2-0.7,2.6-1.1,4.1-1h1.5V4.2c0-0.5-0.1-0.9-0.4-1.3C6.1,2.5,5.7,2.3,5.2,2.4c-0.5,0-0.9,0.1-1.3,0.4
	C3.6,3,3.4,3.4,3.4,3.7H0.3c0-0.7,0.2-1.3,0.6-1.9C1.4,1.3,2,0.8,2.7,0.5C3.5,0.2,4.4,0,5.3,0c1.3-0.1,2.5,0.3,3.5,1.1
	c0.9,0.8,1.4,1.9,1.3,3.1v5.2c0,0.9,0.1,1.8,0.5,2.6v0.2H7.4z M4.7,9.9c0.4,0,0.9-0.1,1.3-0.3c0.4-0.2,0.7-0.5,0.9-0.9v-2H5.7
	c-1.6,0-2.4,0.5-2.5,1.6v0.2c0,0.4,0.1,0.7,0.4,1C3.9,9.8,4.3,10,4.7,9.9z"/>
<path class="st0" d="M17.8,8.8c0-0.4-0.2-0.8-0.6-0.9c-0.6-0.3-1.2-0.5-1.9-0.6c-2.8-0.6-4.2-1.8-4.3-3.6c0-1,0.5-2,1.3-2.6
	c1-0.7,2.2-1.1,3.4-1.1c1.3-0.1,2.6,0.3,3.6,1.1c0.9,0.6,1.4,1.7,1.4,2.8h-3.2c0-0.4-0.1-0.8-0.4-1.1c-0.4-0.3-0.9-0.5-1.4-0.4
	c-0.4,0-0.9,0.1-1.2,0.4c-0.3,0.2-0.4,0.6-0.4,0.9c0,0.4,0.2,0.7,0.5,0.9c0.5,0.3,1.1,0.5,1.7,0.6c0.7,0.1,1.3,0.3,2,0.5
	c1.5,0.4,2.5,1.7,2.5,3.2c0,1.1-0.5,2-1.4,2.6c-1.1,0.7-2.3,1.1-3.6,1c-0.9,0-1.8-0.2-2.7-0.5c-0.7-0.3-1.4-0.8-1.8-1.5
	c-0.4-0.6-0.7-1.3-0.7-2h3c0,0.5,0.2,1,0.6,1.3c0.5,0.3,1,0.5,1.6,0.5c0.5,0,1-0.1,1.4-0.4C17.6,9.5,17.8,9.2,17.8,8.8z"/>
<path class="st0" d="M24.7,0.2l0.1,1.4C25.6,0.5,26.9,0,28.2,0c1.1-0.1,2.1,0.3,2.8,1.1c0.7,1,1,2.1,1,3.3v7.7h-3.2V4.5
	c0-0.5-0.1-1.1-0.4-1.5c-0.4-0.3-0.9-0.5-1.5-0.5c-0.8,0-1.6,0.4-2,1.1v8.5h-3.2V0.2H24.7z"/>
</svg>
